<svg width="20" height="20" viewBox="0 0 20 20" fill="none" xmlns="http://www.w3.org/2000/svg">
<g id="pencil (1) 1" clip-path="url(#clip0_1_3705)">
<g id="Group">
<path id="Vector" d="M15.9766 0.113281C15.4922 0.269531 15.3672 0.363281 14.4531 1.27344L13.5742 2.14844L15.7109 4.28516L17.8516 6.42578L18.6758 5.60547C19.5547 4.73047 19.7578 4.47266 19.8867 4.06641C20.0625 3.49609 20.0234 2.97266 19.7578 2.42188C19.6094 2.10938 19.5547 2.04297 18.7539 1.24609C17.8555 0.347656 17.6992 0.234375 17.1875 0.0976562C16.8867 0.015625 16.2461 0.0234375 15.9766 0.113281Z" fill="#C85100"/>
<path id="Vector_2" d="M6.80857 8.91799L1.25388 14.4727L0.621067 17.0117C0.156223 18.875 -0.0078394 19.5821 0.0155981 19.6602C0.0507543 19.8008 0.195286 19.9492 0.332004 19.9844C0.437473 20.0117 5.31638 18.8281 5.50779 18.7266C5.56247 18.6992 8.08982 16.1914 11.125 13.1563L16.6406 7.63674L14.5 5.49611L12.3633 3.35939L6.80857 8.91799Z" fill="#C85100"/>
</g>
</g>
<defs>
<clipPath id="clip0_1_3705">
<rect width="20" height="20" fill="white"/>
</clipPath>
</defs>
</svg>
