<svg width="34" height="34" viewBox="0 0 34 34" fill="none" xmlns="http://www.w3.org/2000/svg">
<g id="Communication / Paper_Plane" clip-path="url(#clip0_314_1682)">
<path id="Vector" d="M14.6066 16.9999L21.4601 16.9999M27.0568 18.414L14.7636 24.9222C13.6616 25.5056 13.1106 25.7974 12.7473 25.7135C12.4322 25.6407 12.1719 25.4202 12.0484 25.1214C11.9059 24.7768 12.1028 24.1851 12.4971 23.0021L14.3292 17.5059C14.3918 17.3182 14.423 17.2243 14.4354 17.1283C14.4465 17.043 14.4467 16.9569 14.4357 16.8717C14.4232 16.7757 14.3918 16.6817 14.3292 16.4939L12.4971 10.9977C12.1028 9.81474 11.9055 9.2233 12.048 8.87871C12.1716 8.57986 12.4322 8.35922 12.7473 8.28647C13.1106 8.20257 13.6616 8.49437 14.7637 9.0778L27.0569 15.586C27.9233 16.0446 28.3564 16.2739 28.498 16.5798C28.6214 16.8463 28.6215 17.1537 28.4982 17.4202C28.3565 17.7261 27.9232 17.9553 27.0568 18.414Z" stroke="#FF6700" stroke-width="2" stroke-linecap="round" stroke-linejoin="round"/>
</g>
<defs>
<clipPath id="clip0_314_1682">
<rect width="24" height="24" fill="white" transform="translate(17 0.0294342) rotate(45)"/>
</clipPath>
</defs>
</svg>
